<svg xmlns="http://www.w3.org/2000/svg" width="640" height="69" viewBox="0 0 640 69">
    <g fill="none" fill-rule="evenodd">
        <g fill="#FFF" fill-rule="nonzero">
            <g>
                <g>
                    <path d="M20.163 39.662C9.277 39.662.452 30.837.452 19.95.452 9.064 9.277.238 20.163.238 25.4.298 30.407 2.4 34.117 6.097l-5.766 5.485c-1.996-2.465-5.017-3.871-8.188-3.812-6.601 0-11.715 5.578-11.715 12.087 0 6.51 5.116 12.181 11.715 12.181v7.624zm19.993-10.785c9.09 9.063 9.111 23.78.048 32.869-9.063 9.09-23.78 9.11-32.87.047-4.438-4.359-6.92-10.33-6.88-16.552H8.45c-.017 6.243 3.74 11.877 9.51 14.263 5.768 2.385 12.407 1.048 16.804-3.384 5.858-5.997 5.858-15.574 0-21.572l5.392-5.672zM103.38 2.005h8.276L87.759 41.429h-8.461L63.677 12.602V67.09h-7.904V2h10.229l17.852 32.73L103.38 2.005zm8.276 39.424v25.663h-7.904V41.429h7.904zM130.712 2.005L130.712 67.095 122.808 67.095 122.808 2.005zM149.677 2.005v65.09h-7.81V2.005h7.81zm25.292 57.37v7.717H157.58v-7.718h17.388zM218.387 9.63h-26.779v16.643h26.779v7.532h-34.59v-31.8h34.59v7.624zm-26.779 31.8v17.944h26.779v7.718h-34.59V41.429h7.811zM256.225 2.005v65.09h-8.09V2.005h8.09zm15.249 39.33h-7.346v-7.53h7.349c6.638-.053 11.991-5.45 11.991-12.088 0-6.638-5.353-12.035-11.991-12.088h-7.346V2.005h7.346c7.084-.089 13.668 3.64 17.236 9.76 3.568 6.121 3.568 13.688 0 19.809-3.568 6.12-10.152 9.85-17.236 9.76h-.003zM308.012 2.005v65.09h-7.81V2.005h7.81zm25.291 57.37v7.717h-17.388v-7.718h17.388zM387.042 67.092L380.627 49.054 353.197 49.054 346.782 67.092 338.877 67.092 348.084 41.429 377.931 41.429 366.958 11.489 358.775 33.805 350.873 33.805 362.495 2.005 371.235 2.005 394.758 67.095zM421.905 39.662c-10.886 0-19.712-8.825-19.712-19.712 0-10.886 8.826-19.712 19.712-19.712 5.234.062 10.238 2.163 13.945 5.859l-5.765 5.485c-1.994-2.463-5.013-3.87-8.182-3.812-6.602 0-11.716 5.578-11.716 12.087 0 6.51 5.114 12.181 11.716 12.181l.002 7.624zm19.992-10.785c9.09 9.063 9.11 23.78.046 32.87-9.063 9.09-23.78 9.11-32.87.046-4.438-4.36-6.92-10.331-6.88-16.552h7.997c-.017 6.243 3.74 11.877 9.509 14.263 5.769 2.385 12.408 1.048 16.804-3.384 5.858-5.997 5.858-15.574 0-21.572l5.394-5.672zM503.818 2.005v7.624H447.75V2.005h56.068zm-23.99 15.156v49.93h-7.902v-49.93h7.902zM519.621 2.005L519.621 67.095 511.717 67.095 511.717 2.005zM530.312 33.805C530.684 15.208 542.678.238 562.39.238c9.67 0 15.717 3.999 22.038 10.044l-5.58 5.486c-4.741-4.835-9.113-7.904-16.458-7.904-15.527 0-23.896 11.437-24.175 25.942l-7.903-.001zm54.3 24.547c-6.321 6.322-12.459 10.134-22.222 10.134-17.201 0-28.36-11.25-31.52-27.057h8.275c2.79 11.716 10.044 19.247 23.245 19.247 7.437 0 11.807-3.066 16.551-7.996l5.671 5.672zM612.689 39.662c-10.887 0-19.712-8.825-19.712-19.712 0-10.886 8.825-19.712 19.712-19.712 5.234.061 10.239 2.163 13.947 5.859l-5.765 5.485c-1.994-2.464-5.013-3.87-8.182-3.812-6.602 0-11.716 5.578-11.716 12.087 0 6.51 5.114 12.181 11.716 12.181v7.624zm19.991-10.785c5.88 5.863 8.186 14.417 6.048 22.441s-8.394 14.298-16.411 16.459c-8.018 2.16-16.58-.12-22.46-5.984-4.438-4.359-6.92-10.33-6.88-16.551h7.996c-.016 6.243 3.74 11.877 9.51 14.262 5.769 2.385 12.407 1.048 16.804-3.384 5.859-5.997 5.859-15.575 0-21.572l5.393-5.672z" transform="translate(-32 -9622) translate(0 9591) translate(32 31)"/>
                </g>
            </g>
        </g>
    </g>
</svg>
