<svg xmlns="http://www.w3.org/2000/svg" width="24" height="24" viewBox="0 0 24 24">
    <g fill="none" fill-rule="evenodd">
        <g fill="#FFF">
            <g>
                <g>
                    <g>
                        <path d="M12 0c6.627 0 12 5.373 12 12s-5.373 12-12 12S0 18.627 0 12 5.373 0 12 0zm2.786 4.927c-2.888 0-4.58 1.526-4.58 5v2.099h-2.97v3.155h2.97v8.67c.587.089 1.183.149 1.794.149.553 0 1.092-.05 1.624-.123v-8.696h3.106l.488-3.155h-3.594v-1.724c0-1.31.428-2.473 1.654-2.473h1.97V5.076c-.346-.047-1.078-.15-2.462-.15z" transform="translate(-816 -10143) translate(0 9591) translate(815 383) translate(1 169)"/>
                    </g>
                </g>
            </g>
        </g>
    </g>
</svg>
