<svg xmlns="http://www.w3.org/2000/svg" width="24" height="24" viewBox="0 0 24 24">
    <g fill="none" fill-rule="evenodd">
        <g fill="#FFF">
            <g>
                <g>
                    <g>
                        <path d="M54.998 0C51.14 0 48 3.142 48 7.002v10C48 20.862 51.142 24 55.002 24h10C68.86 24 72 20.858 72 16.998v-10C72 3.138 68.858 0 64.998 0h-10zM67 4c.552 0 1 .448 1 1s-.448 1-1 1-1-.448-1-1 .448-1 1-1zm-7 2c3.309 0 6 2.69 6 6s-2.691 6-6 6-6-2.69-6-6 2.691-6 6-6zm0 2c-2.21 0-4 1.791-4 4s1.79 4 4 4 4-1.791 4-4-1.79-4-4-4z" transform="translate(-864 -10143) translate(0 9591) translate(815 383) translate(1 169)"/>
                    </g>
                </g>
            </g>
        </g>
    </g>
</svg>
