<svg xmlns="http://www.w3.org/2000/svg" width="22" height="16" viewBox="0 0 22 16">
    <g fill="none" fill-rule="evenodd">
        <g fill="#FFF">
            <g>
                <g>
                    <g>
                        <path d="M193.261 6.675l7.91 7.91.16.152c1.57 1.41 3.987 1.359 5.497-.151l7.911-7.91c.172.524.261 1.214.261 2.452v5.744c0 1.783-.186 2.43-.534 3.082-.349.652-.86 1.163-1.512 1.512-.652.348-1.299.534-3.082.534h-11.744c-1.783 0-2.43-.186-3.082-.534-.652-.349-1.163-.86-1.512-1.512-.348-.652-.534-1.299-.534-3.082V9.128c0-1.238.09-1.929.261-2.453zM209.872 4c1.783 0 2.43.186 3.082.534.237.127.455.275.654.444l-8.194 8.194-.127.116c-.786.662-1.961.624-2.701-.116l-8.194-8.194c.199-.169.417-.317.654-.444.652-.348 1.299-.534 3.082-.534h11.744z" transform="translate(-1009 -10147) translate(0 9591) translate(815 383) translate(1 169)"/>
                    </g>
                </g>
            </g>
        </g>
    </g>
</svg>
