<svg xmlns="http://www.w3.org/2000/svg" width="24" height="24" viewBox="0 0 24 24">
    <g fill="none" fill-rule="evenodd">
        <g fill="#FFF">
            <g>
                <g>
                    <g>
                        <path d="M108 0c-6.626 0-12 5.375-12 12 0 5.078 3.157 9.41 7.613 11.162-.018-.41-.018-2.536 1.46-8.876.198-2.114-.077-2.864-.077-3.742 0-1.994 1.036-2.415 1.643-2.415.863 0 2.052.33 2.052 1.72 0 1.59-1.298 2.012-1.298 2.012s-.092.406-.202 1.537c-.106 1.134.348 2.363 2.196 2.363 2.963 0 3.42-4.116 3.42-5.25 0-1.562-1.145-4.738-4.705-4.738-4.745 0-5.56 4.251-5.56 5.385 0 .487.131 1.343.223 1.71.896.145.804 1.371.42 1.718-.424.385-2.616.842-2.616-3.965 0-4.578 4.08-6.937 7.661-6.937 3.41 0 7.12 2.353 7.12 6.882 0 4.047-2.905 7.229-5.96 7.229-1.833 0-2.806-1.51-2.806-1.51 0 1.415-2.597 6.274-2.93 6.892 1.35.523 2.813.823 4.346.823 6.63 0 12-5.37 12-12s-5.374-12-12-12z" transform="translate(-912 -10143) translate(0 9591) translate(815 383) translate(1 169)"/>
                    </g>
                </g>
            </g>
        </g>
    </g>
</svg>
