<svg xmlns="http://www.w3.org/2000/svg" width="25" height="20" viewBox="0 0 25 20">
    <g fill="none" fill-rule="evenodd">
        <g fill="#FFF" fill-rule="nonzero">
            <g>
                <g>
                    <g>
                        <path d="M169 5.368c-.92.401-1.907.672-2.945.794 1.059-.624 1.871-1.614 2.255-2.794-.991.58-2.089 1-3.257 1.225-.936-.98-2.268-1.593-3.744-1.593-2.832 0-5.128 2.26-5.128 5.05 0 .395.046.779.132 1.15-4.264-.212-8.042-2.223-10.572-5.277-.44.748-.694 1.615-.694 2.539 0 1.751.906 3.298 2.281 4.202-.84-.027-1.631-.253-2.323-.631v.065c0 2.446 1.767 4.486 4.115 4.95-.432.115-.884.176-1.351.176-.33 0-.653-.03-.966-.089.653 2.005 2.547 3.466 4.792 3.505-1.756 1.355-3.968 2.162-6.37 2.162-.415 0-.823-.024-1.225-.07 2.27 1.433 4.966 2.268 7.861 2.268 9.436 0 14.595-7.693 14.595-14.364 0-.217-.006-.436-.016-.653 1.002-.713 1.872-1.6 2.558-2.612l.002-.003z" transform="translate(-960 -10146) translate(0 9591) translate(815 383) translate(1 169)"/>
                    </g>
                </g>
            </g>
        </g>
    </g>
</svg>
